<svg xmlns="http://www.w3.org/2000/svg" viewBox="0 0 32.79 24.13"><defs><style>.cls-1{fill:#ccc;}.cls-2{fill:#d2171a;}</style></defs><g id="图层_2" data-name="图层 2"><g id="图层_1-2" data-name="图层 1"><path class="cls-1" d="M15.32,20.12c-1.82-.14-3.67-.22-5.5-.47a2.61,2.61,0,0,0-2.21.45c-1.38,1.07-2.83,2-4.5,3.25.48-1.76.86-3.27,1.31-4.75a1.17,1.17,0,0,0-.5-1.51A9.09,9.09,0,0,1,.26,11.91,7.74,7.74,0,0,1,2.32,4.4C5.69.82,10-.28,14.76.06a14.46,14.46,0,0,1,8.44,3.3A7.33,7.33,0,0,1,25.77,7,12.52,12.52,0,0,0,18,8.29c-3.18,1.64-4.93,4.53-4.37,7.65A22.84,22.84,0,0,0,15.32,20.12Z"/><path class="cls-2" d="M30.62,24.13a8.56,8.56,0,0,1-.88-.48,9,9,0,0,0-6.71-2,8.17,8.17,0,0,1-5.77-2c-3.54-2.75-3.46-7,.15-9.69a11.19,11.19,0,0,1,13.08.35,5.62,5.62,0,0,1,0,9.08,1.56,1.56,0,0,0-.63,2.17A24.41,24.41,0,0,1,30.62,24.13Z"/></g></g></svg>